<svg id="Layer_1" data-name="Layer 1" xmlns="http://www.w3.org/2000/svg" viewBox="0 0 32 32"><defs><style>.cls-1{fill:#fff;}</style></defs><title>white_nodejsicon</title><path class="cls-1" d="M1.34,1.37H30.67V30.63H1.34ZM0,32H32V0H0Z"/><path class="cls-1" d="M20.1,8.56C20,8.61,20,8.5,20,10.47a9.11,9.11,0,0,1,0,1.84s-.08,0-.36-.13-.45-.25-.57-.21l-1.23.7c-1.29.75-1.25.72-1.28.86s0,.48,0,1.44c0,1.51,0,1.41.09,1.5s2.36,1.39,2.44,1.41a.28.28,0,0,0,.18,0s1.69-1,2.26-1.29c.15-.09.2-.13.23-.2s0-.34,0-3.47,0-3.42,0-3.47l-.06-.08L21,8.94a4.06,4.06,0,0,0-.76-.4l-.09,0m-.49,5.62a1.84,1.84,0,0,1,.42.27s0,.24,0,.49v.46l0,0s-.82.49-.84.49-.81-.47-.84-.49l0,0v-.48a4.41,4.41,0,0,1,0-.48,9,9,0,0,1,.85-.5l.44.24"/><path class="cls-1" d="M6.36,11.9,4,13.26a.21.21,0,0,0-.1.11l0,.06v3.74l0,0c.09.09.07.1.86-.35s.8-.47.83-.58,0-.31,0-.94c0-.87,0-.88,0-.94s0-.07.06-.08l.37-.22.32-.19h.17l.33.19c.34.2.41.25.43.33s0,.35,0,.92,0,.89,0,.93.07.14.83.58.77.43.85.36l0,0V15.31a16.5,16.5,0,0,0,0-1.92L9,13.31S6.83,12,6.6,11.92a.4.4,0,0,0-.24,0"/><path class="cls-1" d="M25.46,11.93c-.05,0-2.4,1.38-2.43,1.41a.16.16,0,0,0-.06.09l0,.06v2.8l0,.06a.16.16,0,0,0,.06.09s.56.33,1.21.7c.83.48,1.2.68,1.24.69a.24.24,0,0,0,.12,0c.07,0,1.48-.8,1.51-.84a.15.15,0,0,0,0-.16,9.16,9.16,0,0,0-1.22-.73c-.65-.37-1.2-.69-1.21-.71s0,0,0-.5v-.47l0,0a5.82,5.82,0,0,1,.83-.47,1.39,1.39,0,0,1,.31.16l.39.22c.17.1.15,0,.16.5v.4l0,0c.07.07.11.06.34-.07,1.3-.75,1.32-.76,1.35-.88a2.05,2.05,0,0,0,0-.43c0-.36,0-.38,0-.43a.28.28,0,0,0-.05-.08S25.7,12,25.64,11.94a.28.28,0,0,0-.18,0"/><path class="cls-1" d="M12.74,11.94l-1.11.64-.12.06-.09,0-.11.07,0,0s0,0,.08,0l.09-.05v2.54l.35.64c1,1.77,1.07,2,1.09,2a4.81,4.81,0,0,0,.85-.47l.83-.48.11-.07s0,0,0,0l0,0v-1a9.41,9.41,0,0,0,0-1s0,0,.53-1.05l.24-.43,0,0s-.12-.08-1.93-1.12c-.23-.14-.44-.25-.48-.27a.32.32,0,0,0-.17,0"/><path class="cls-1" d="M15.75,17.43l-.08,0-1.15.66c-.75.43-1.14.67-1.18.7a.43.43,0,0,0-.13.25c0,.11,0,2.61,0,2.71a.51.51,0,0,0,.13.24,6.51,6.51,0,0,0,.78.45.78.78,0,0,0,.38.09.61.61,0,0,0,.59-.31c.08-.16.08-.13.08-1.59,0-1,0-1.33,0-1.34a1.15,1.15,0,0,0-.37,0,9.42,9.42,0,0,0,0,1.32c0,1.45,0,1.35-.08,1.43a.38.38,0,0,1-.35.05l-.39-.21-.31-.18V19.11l.24-.14.53-.3.45-.26,1-.58s2.2,1.26,2.23,1.28a6.53,6.53,0,0,1,0,1.31v1.29l-.05,0L17,22.39c-.69.4-1.08.62-1.1.62l-.31-.18-.3-.17-.12.05-.2.09c-.05,0-.09,0-.09.05s.05.07.46.31l.4.24H16l.33-.19,1.14-.66c.91-.52.94-.54,1-.68l0-.08V20.45c0-1.49,0-1.43-.08-1.56s-.09-.1-.53-.36l-.57-.33-.74-.43c-.63-.36-.66-.37-.85-.34"/><path class="cls-1" d="M16.29,19.24a.91.91,0,0,0-.77.4.64.64,0,0,0-.07.31.52.52,0,0,0,.15.41c.15.15.36.21.89.27s.67.13.7.26a.57.57,0,0,1,0,.12c0,.2-.28.28-.73.27s-.59-.12-.65-.39c0-.1,0-.1-.21-.1h-.18s0,0,0,.12a.72.72,0,0,0,.57.68,1.92,1.92,0,0,0,.58.07,1.41,1.41,0,0,0,.81-.19.68.68,0,0,0,.28-.72c-.07-.3-.28-.43-.88-.52l-.34,0c-.41-.06-.51-.11-.51-.26s.09-.22.26-.27a2.13,2.13,0,0,1,.51,0c.26,0,.37.11.44.31s0,.1.07.11a.78.78,0,0,0,.34,0s0,0,0-.1a.74.74,0,0,0-.25-.51,1.11,1.11,0,0,0-.61-.21,1.78,1.78,0,0,0-.39,0"/><path class="cls-1" d="M10.91,15.33c-.17.28-.37.63-.46.79l-.17.28,0,0a.82.82,0,0,0,.17.11l.29.17.21.12.26.15.15.08.16.1.26.15.28.16.29.17a2.28,2.28,0,0,0,.38.2h.06s0,0,0,0-.23-.44-.52-1l-.81-1.47-.3-.55s-.06,0-.31.48"/><path class="cls-1" d="M15.09,13.81c-.55,1-.54,1-.52,1s0,.33,0,1v1l.06,0s.06,0,.07,0a0,0,0,0,0,0,0h0l.45-.26.09-.05.05,0a.18.18,0,0,0,.07-.15s-.16-.29-.35-.62l-.35-.61.36.17.35.17v.08s0-.39,0-1a6.07,6.07,0,0,0,0-1.08s0,0,0,0a3.83,3.83,0,0,0-.26.43"/><path class="cls-1" d="M10.45,13.25c-.12.07-.2.15-.21.22s0,.44,0,1.3V16l.11.06.1.05.1-.16.38-.65.3-.51-.41-.73-.4-.76s0,0,.07-.06l.08,0s-.05,0-.1,0"/><path class="cls-1" d="M11.4,12.71s-.13.09-.14.09,0,0,0,0H11.2l0,0,0,0s0,0,0,0,0,0-.06,0h0s0,0,0,0h0s-.07.05-.08,0h0l0,0,0,0,0,0h0a.86.86,0,0,1-.19.11h0a.26.26,0,0,1-.08.05l-.09.06.4.75c.23.4.41.75.42.77l0,0s0,0,0,.05l0,.06s0,0,0,0h0a.31.31,0,0,1,0,.1v0s0,0,0,.06l0,.05V14a10.61,10.61,0,0,0,0-1.26h0"/><path class="cls-1" d="M25.28,14.45l-.24.13v.59l.24.14a1.14,1.14,0,0,0,.26.14,1.35,1.35,0,0,0,.27-.14l.23-.14v-.58l-.05,0a3.36,3.36,0,0,0-.46-.25,1.14,1.14,0,0,0-.26.14"/><path class="cls-1" d="M19.2,18.6a.43.43,0,0,0-.31.23.41.41,0,0,0,.2.57.42.42,0,0,0,.33,0,.49.49,0,0,0,.24-.21.62.62,0,0,0,0-.38.43.43,0,0,0-.46-.23m.21.1a.42.42,0,0,1,.18.17.28.28,0,0,1,0,.14.33.33,0,0,1-.19.32.24.24,0,0,1-.15,0,.32.32,0,0,1-.31-.2.37.37,0,0,1,0-.29.36.36,0,0,1,.45-.17"/><path class="cls-1" d="M14.7,15.06s.7,1.21.71,1.21,0-.87,0-.88a7.34,7.34,0,0,0-.71-.33"/><path class="cls-1" d="M19.11,19v.25h.11v-.19h.05s.05,0,.06,0a.19.19,0,0,1,0,.08c0,.06,0,.08.07.08s.06,0,.05-.05a.25.25,0,0,1,0-.1.34.34,0,0,0,0-.08,0,0,0,0,1,0,0s.06-.06.06-.11a.11.11,0,0,0,0-.09s0,0-.16,0h-.14V19m.22-.14a.06.06,0,0,1,0,0s0,.06-.08.06h0v-.12h0l.07,0"/><path class="cls-1" d="M10.22,16.15a.39.39,0,0,0,0,.18.14.14,0,0,0,0,.05s0,0,.05-.07l.08-.13,0-.05-.1-.05-.11,0s0,0,0,.12"/><path class="cls-1" d="M10.66,13.14l-.07,0,.17-.1s0,0-.1.05"/><path class="cls-1" d="M11.06,12.91l0,0,.05,0s0,0,0,0l0,0"/><path class="cls-1" d="M11,13l0,0s0,0,0,0,0,0,0,0"/><path class="cls-1" d="M10.79,13.06s0,0,0,0l0,0h0"/><path class="cls-1" d="M10.86,13h0l0,0,0,0"/></svg>