<svg id="Layer_1" data-name="Layer 1" xmlns="http://www.w3.org/2000/svg" viewBox="0 0 32 32"><defs><style>.cls-1{fill:#fff;}</style></defs><title>white_aiIcon</title><path class="cls-1" d="M1.34,1.37H30.67V30.63H1.34ZM0,32H32V0H0ZM21,11.41c0-.11,0-.17.16-.17h2.09c.11,0,.16,0,.16.17V22.19c0,.11,0,.17-.16.17H21.15c-.14,0-.18-.07-.18-.18V11.41ZM20.81,8.3a1.36,1.36,0,1,1,2.72,0,1.29,1.29,0,0,1-1.18,1.4h-.2a1.28,1.28,0,0,1-1.34-1.21,1.21,1.21,0,0,1,0-.19Zm-6,7.61c-.37-1.53-1.25-4.83-1.58-6.43h0c-.28,1.6-1,4.31-1.55,6.43Zm-3.7,2.21-1.06,4.1c0,.11-.06.14-.2.14H7.9c-.14,0-.16,0-.14-.2l3.79-13.6a4.34,4.34,0,0,0,.13-1.14c0-.09,0-.13.11-.13h2.8c.09,0,.13,0,.16.13L19,22.18c0,.11,0,.18-.11.18H16.67c-.11,0-.18,0-.2-.12l-1.1-4.12Z"/></svg>