<svg id="Layer_1" data-name="Layer 1" xmlns="http://www.w3.org/2000/svg" viewBox="0 0 32 32"><defs><style>.cls-1{fill:#fff;}</style></defs><title>white_photoshopicon</title><path class="cls-1" d="M1.34,1.37H30.67V30.63H1.34ZM0,32H32V0H0Z"/><path class="cls-1" d="M7.17,7.56l-.7.05,0,8.34,0,8.34H9.06V18.21l.59.05a9.73,9.73,0,0,0,3.07-.33,4.92,4.92,0,0,0,3.52-3.26,4.49,4.49,0,0,0,.22-1.85,4.89,4.89,0,0,0-.57-2.8A4.94,4.94,0,0,0,12,7.58a44.28,44.28,0,0,0-4.81,0M12,10.09a2.62,2.62,0,0,1,1.75,3,2.57,2.57,0,0,1-2.07,2.68,9.2,9.2,0,0,1-2.36.16l-.3-.06V12.9c0-2.73,0-3,.14-3a8,8,0,0,1,1.25,0,4.89,4.89,0,0,1,1.59.19"/><path class="cls-1" d="M21.47,11.8c-2.19.34-3.49,1.8-3.38,3.81.09,1.57.83,2.43,3.09,3.61a5.77,5.77,0,0,1,1.33.89c.48.45.48.46.48.93s0,.51-.27.75a1.93,1.93,0,0,1-1.54.45,6,6,0,0,1-2.48-.61l-.59-.29a10.64,10.64,0,0,0,0,1.27v1.28l.39.16a5.61,5.61,0,0,0,2.73.45,5.12,5.12,0,0,0,1.8-.16,3.44,3.44,0,0,0,2.27-1.83,2.53,2.53,0,0,0,.31-1.66,2.74,2.74,0,0,0-.22-1.5c-.42-.9-1.11-1.48-2.89-2.44a8.93,8.93,0,0,1-1.38-.9c-.34-.31-.41-.42-.44-.74a1,1,0,0,1,.63-1.06,4.64,4.64,0,0,1,3.27.29,3.08,3.08,0,0,0,.51.2,5,5,0,0,0,.07-1.19c0-1.37,0-1.33-.9-1.56a13.55,13.55,0,0,0-2.75-.15"/></svg>