<svg id="Layer_1" data-name="Layer 1" xmlns="http://www.w3.org/2000/svg" viewBox="0 0 32 32"><defs><style>.cls-1{fill:#fff;}</style></defs><title>white_jsicon</title><path class="cls-1" d="M1.34,1.37H30.67V30.63H1.34ZM0,32H32V0H0Z"/><path class="cls-1" d="M23.81,18.89a2.28,2.28,0,0,0-1.23.64A2,2,0,0,0,22,21.1a2.17,2.17,0,0,0,.67,1.7,4.4,4.4,0,0,0,1.6.95c.39.18.79.36.88.42a.87.87,0,0,1,.56.82c0,.53-.46.86-1.2.85A1.76,1.76,0,0,1,23,25a1.64,1.64,0,0,0-.16-.19c-.05,0-1.33.78-1.33.81a1.14,1.14,0,0,0,.14.26,3.29,3.29,0,0,0,2.91,1.43,3.09,3.09,0,0,0,2-.58,2.1,2.1,0,0,0,.81-1.81,2.09,2.09,0,0,0-.64-1.66,5.1,5.1,0,0,0-1.83-1.09,3.52,3.52,0,0,1-1.06-.58A.77.77,0,0,1,24,20.4a1.34,1.34,0,0,1,.77-.07,1.36,1.36,0,0,1,.75.64c0,.05.12,0,.62-.32.31-.2.61-.39.65-.43l.07-.06L26.73,20a2.51,2.51,0,0,0-.92-.83,4,4,0,0,0-.51-.2,5,5,0,0,0-1.49,0"/><path class="cls-1" d="M18.77,22.06v3.15l-.1.2a.69.69,0,0,1-.69.41,1.75,1.75,0,0,1-.42,0,1.47,1.47,0,0,1-.67-.6,1.24,1.24,0,0,0-.17-.22c-.16.08-1.32.81-1.32.83a2.25,2.25,0,0,0,.54.77,2.47,2.47,0,0,0,2,.73,2.46,2.46,0,0,0,1.36-.25,2.14,2.14,0,0,0,.9-.91c.27-.56.26-.32.27-4V18.91H18.78v3.15"/></svg>